<?xml version="1.0" encoding="UTF-8" standalone="no"?>
<svg
   height="441.93549"
   width="431.72043"
   viewBox="-42.525 -74.4 132.59213 246.6"
   version="1.1"
   id="svg18"
   sodipodi:docname="aldinord.svg"
   inkscape:version="1.2 (dc2aeda, 2022-05-15)"
   xmlns:inkscape="http://www.inkscape.org/namespaces/inkscape"
   xmlns:sodipodi="http://sodipodi.sourceforge.net/DTD/sodipodi-0.dtd"
   xmlns="http://www.w3.org/2000/svg"
   xmlns:svg="http://www.w3.org/2000/svg">
  <defs
     id="defs22" />
  <sodipodi:namedview
     id="namedview20"
     pagecolor="#ffffff"
     bordercolor="#666666"
     borderopacity="1.0"
     inkscape:showpageshadow="2"
     inkscape:pageopacity="0.0"
     inkscape:pagecheckerboard="0"
     inkscape:deskcolor="#d1d1d1"
     showgrid="false"
     inkscape:zoom="1.668772"
     inkscape:cx="65.916734"
     inkscape:cy="373.62803"
     inkscape:window-width="3840"
     inkscape:window-height="2160"
     inkscape:window-x="0"
     inkscape:window-y="0"
     inkscape:window-maximized="1"
     inkscape:current-layer="svg18" />
  <path
     fill="#001e78"
     d="m -92.435463,172.31625 v -59.5 H 140.06454 v 59.5 z"
     id="path6" />
  <path
     d="m 118.76454,165.21625 v -45.4 H 98.364534 v 45.4 z m -25.000006,-22.6 c 0,-12.5 -10.099992,-22.7 -22.499992,-22.7 h -30.1 v 45.3 h 30.1 c 12.4,0 22.499992,-10.1 22.499992,-22.6 z m -18.699992,0 c 0,5.4 -4.1,9.9 -9.2,9.9 h -4.4 v -19.7 h 4.4 c 5.1,-0.1 9.2,4.3 9.2,9.8 z m -76.3999998,22.6 H 37.164542 v -13.1 h -17.8 v -32.3 H -1.3354578 Z m -23.2000002,0 h 20.6000002 l -23.2000002,-45.4 h -20.8 l -23.2,45.4 h 20.6 l 2.2,-4.8 h 21.7 z m -8.3,-16.7 h -9.5 l 4.6,-10.1 z"
     fill="#ffffff"
     id="path8" />
  <path
     d="m 102.56453,107.11625 c 3.1,-5.8 4.8,-11.800002 4.7,-18.600002 -0.1,-7.6 -3.3,-12.5 -7.599996,-19 l -62.999992,-94.6 10.2,-15.5 70.099998,104.8 c 5.8,8.6 9.1,15.1 9.3,24.7 0.1,5.6 -1.6,12.600002 -4.2,18.100002 h -19.50001 z"
     fill="#00b4dc"
     id="path10" />
  <path
     d="m 124.96454,107.11625 c 0.5,-1.1 0.8,-1.8 1.2,-2.8 1.5,-4 3.4,-9.500002 3.2,-15.300002 -0.2,-10.1 -3.7,-16.8 -9.6,-25.5 l -71.199998,-106.4 8.2,-12.4 77.499998,116.2 c 6.8,10.2 10,16.2 10,25.6 0,10.8 -2.9,15.600002 -5.1,20.500002 h -14.2 z m -43.499998,0 c 4.2,-4.4 7.199992,-11.500002 6.799997,-19.000002 -0.3,-6.4 -4.299997,-12.7 -8.899997,-19.7 l -52.5,-78.7 8,-12.1 61.899992,92.9 c 4.299996,6.5 7.199996,11 7.299996,18.1 0.1,6.7 -1.6,12.700002 -4.899996,18.500002 z M 2.8645421,-74.283752 l -89.5000001,135.3 c -6.800005,10.2 -10.000005,16.2 -10.000005,25.6 0,10.8 2.9,15.600002 5.1,20.500002 h 14.300005 c -0.4,-0.8 -0.8,-1.8 -1.2,-2.9 -1.5,-4 -3,-9.500002 -2.9,-15.200002 0.2,-10.1 3.7,-16.8 9.6,-25.5 l 91.5,-137.8 z"
     fill="#001e78"
     id="path12" />
  <path
     d="m 22.764542,-74.283752 -92.1,138.7 c -5.8,8.6 -9.1,15.1 -9.3,24.7 -0.1,5.6 1.6,12.600002 4.2,18.100002 h 19.5 c -3.1,-5.8 -4.8,-11.800002 -4.7,-18.600002 0.1,-7.6 3.3,-12.5 7.6,-19 l 95.2,-143.9 z m -57.5,147.4 h 111.4 l -7.6,-11.4 h -96.3 l -4.5,6.7 c -1,1.5 -2.1,3.2 -3,4.7 z"
     fill="#00b4dc"
     id="path14" />
  <path
     d="m 46.264542,-74.283752 -95.8,144.8 c -4.3,6.5 -7.2,11 -7.3,18.1 -0.1,6.7 1.6,12.700002 4.9,18.500002 h 18.1 c -4.2,-4.4 -7.2,-11.500002 -6.8,-19.000002 0.1,-1.5 0.4,-3.5 0.8,-5 h 121.9 c -0.8,-2.4 -1.6,-4.4 -3.7,-7.2 h -114.8 c 1.3,-2.3 3.1,-5.1 4.7,-7.5 l 6.3,-9.4 h 92.7 l -5.1,-7.6 h -82.5 l 83.1,-125.6 h -16.5 z"
     fill="#001e78"
     id="path16" />
</svg>
